<?xml version="1.0" encoding="utf-8"?>
<!-- Generator: Adobe Illustrator 25.4.1, SVG Export Plug-In . SVG Version: 6.00 Build 0)  -->
<svg version="1.1" id="Calque_1" xmlns="http://www.w3.org/2000/svg" xmlns:xlink="http://www.w3.org/1999/xlink" x="0px" y="0px"
	 viewBox="0 0 475.3 629.5" style="enable-background:new 0 0 475.3 629.5;" xml:space="preserve" width="75px">
<style type="text/css">
	.st0{fill:none;}
	.st1{enable-background:new    ;}
	.st2{clip-path:url(#SVGID_00000002363138002380795850000006870106415591731359_);}
	.st3{fill-rule:evenodd;clip-rule:evenodd;fill:url(#SVGID_00000126323693252518150660000017060684474625456813_);}
	.st4{fill:#FFFFFF;}
</style>
<rect x="-140.7" y="-26.4" class="st0" width="701" height="845"/>
<g class="st1">
	<path d="M34.7,628.9c-14.3,0-26.5-4.4-34.7-9.9V483.3h6.3v61c5.5-5.9,15.6-10.5,29.1-10.5c27.1,0,47.5,20,47.5,47.5
		C82.8,608.5,62.8,628.9,34.7,628.9z M35.1,539.4c-13.7,0-23.6,5.9-28.9,11.3v64.8c6.1,3.8,17,7.9,28.3,7.9c24.2,0,42-18,42-42
		C76.6,557.4,58.8,539.4,35.1,539.4z"/>
	<path d="M147.3,541.9c-1.8-0.6-4.8-1-7.3-1c-16.8,0-30.1,13.3-30.1,39.4v46.9h-6.3v-91.5h6.3V559h0.2c1.8-12.5,12.7-24.6,30.1-24.6
		c2.4,0,6.1,0.2,8.7,1L147.3,541.9z"/>
	<path d="M230.5,627.1v-15.8h-0.2c-1.8,8.7-12.5,17.6-31.5,17.6c-20,0-35.1-11.1-35.1-30.7v-62.6h6.3v62.2
		c0,16.6,12.1,25.7,29.5,25.7c17.2,0,30.9-9.1,30.9-25.7v-62.2h6.3v91.5H230.5z"/>
	<path d="M276.3,629.5c-8.3-2.8-12.9-9.1-12.9-20.6V483.3h6.3v125.4c0,9.1,3.8,14.3,10.9,16.4L276.3,629.5z"/>
	<path d="M367,627.1v-62.2c0-16.6-12.3-25.7-29.7-25.7c-17.2,0-30.7,9.1-30.7,25.7v62.2h-6.3V483.3h6.3v67.9h0.2
		c1.6-8.9,12.7-17.4,31.1-17.4c20.6,0,35.3,11.1,35.3,30.7v62.6H367z"/>
	<path d="M475.1,574.6l-4.4,4.4h-69.9c-2,23.6,15.6,44.2,41,44.2c10.7,0,19.6-3.2,26.5-8.1l-1,6.9c-6.3,4.4-14.3,6.9-25.9,6.9
		c-26.5,0-47.3-19.8-47.3-47.7c0-27.7,20.2-47.5,42.8-47.5c24.8,0,38.4,17.4,38.4,36.2C475.3,571.6,475.3,573.2,475.1,574.6z
		 M437.1,539.2c-19.4,0-34.1,18-36,34.3h67.7c0.2-1,0.2-2.2,0.2-3.6C469,554.8,458.7,539.2,437.1,539.2z M455.9,498.4
		c-6.3,8.1-14.7,15.1-23.6,21.2l-3.8-1.8c8.5-6.9,16.6-15.6,21.8-23.4c0.4-0.8,1.8-1.8,2.4-1.8c1.2,0,3.8,2.8,3.8,4
		C456.5,497.2,456.3,497.8,455.9,498.4z"/>
</g>
<g>
	<defs>
		<path id="SVGID_1_" d="M2.7,232.5C2.7,104.1,106.6,0,234.7,0s232,104.1,232,232.5c0,128.4-103.9,232.5-232,232.5
			S2.7,360.9,2.7,232.5z"/>
	</defs>
	<clipPath id="SVGID_00000068654648408452544760000008551674805454006453_">
		<use xlink:href="#SVGID_1_"  style="overflow:visible;"/>
	</clipPath>
	<g style="clip-path:url(#SVGID_00000068654648408452544760000008551674805454006453_);">
		
			<linearGradient id="SVGID_00000134957459274326847850000014216359736571248530_" gradientUnits="userSpaceOnUse" x1="3031.2229" y1="-412.6378" x2="3496.2229" y2="51.3613" gradientTransform="matrix(1 0 0 -1 -3029 51.8624)">
			<stop  offset="0" style="stop-color:#0084DA"/>
			<stop  offset="0.5" style="stop-color:#06C0F2"/>
			<stop  offset="1" style="stop-color:#12C9F9"/>
		</linearGradient>
		<path style="fill-rule:evenodd;clip-rule:evenodd;fill:url(#SVGID_00000134957459274326847850000014216359736571248530_);" d="
			M2.7,232.5C2.7,104.1,106.6,0,234.7,0s232,104.1,232,232.5c0,128.4-103.9,232.5-232,232.5S2.7,360.9,2.7,232.5z"/>
		<path class="st4" d="M462.1,185.6v-60.4h-8.3l-24-48.1L211.2,64.7l-30.3,60.6h-8.3v60.4h22.7l30.2,307.9h185.8l30.2-307.9H462.1z
			 M218.4,77.2l203.6,11.6l18.2,36.4H194.4L218.4,77.2z M184.7,173.5v-36.2H450v36.2H184.7z M215.1,264.1h206.5l-13,132.8H228.1
			L215.1,264.1z M400.3,481.4h-164l-7.1-72.4h178.1L400.3,481.4z M422.8,252H213.9l-6.5-66.4h221.9L422.8,252z"/>
	</g>
</g>
</svg>
